HIERARCHY
ROOT Hips
{
  OFFSET 5.84602e-005 68.8428 3.50346
  CHANNELS 6 Xposition Yposition Zposition Zrotation Xrotation Yrotation
  JOINT Spine
  {
    OFFSET 0 8.597 -4.6522
    CHANNELS 3 Zrotation Xrotation Yrotation
    JOINT Spine1
    {
      OFFSET 0 7.8454 0.4098
      CHANNELS 3 Zrotation Xrotation Yrotation
      JOINT Spine2
      {
        OFFSET 0 9.7078 -2.1609
        CHANNELS 3 Zrotation Xrotation Yrotation
        JOINT Neck
        {
          OFFSET 0 21.8761 -0.4549
          CHANNELS 3 Zrotation Xrotation Yrotation
          JOINT Head
          {
            OFFSET 0 12.3537 3.3602
            CHANNELS 3 Zrotation Xrotation Yrotation
            End Site
            {
              OFFSET 0.0001 18.9506 0.5657
            }
          }
        }
        JOINT LeftShoulder
        {
          OFFSET 2.2086 21.1115 7.2329
          CHANNELS 3 Zrotation Xrotation Yrotation
          JOINT LeftArm
          {
            OFFSET 13.1193 3.0282 -4.8998
            CHANNELS 3 Zrotation Xrotation Yrotation
            JOINT LeftForeArm
            {
              OFFSET 27.4081 -0.0973053 -0.2375
              CHANNELS 3 Zrotation Xrotation Yrotation
              JOINT LeftHand
              {
                OFFSET 22.8641 0.0662994 -0.1369
                CHANNELS 3 Zrotation Xrotation Yrotation
                JOINT LeftHandIndex1
                {
                  OFFSET 8.8614 0.775009 2.4612
                  CHANNELS 3 Zrotation Xrotation Yrotation
                  JOINT LeftHandIndex2
                  {
                    OFFSET 3.3146 -0.808304 0.5841
                    CHANNELS 3 Zrotation Xrotation Yrotation
                    JOINT LeftHandIndex3
                    {
                      OFFSET 2.2628 -0.552002 0.3989
                      CHANNELS 3 Zrotation Xrotation Yrotation
                      End Site
                      {
                        OFFSET 1.6102 -0.4807 0.2612
                      }
                    }
                  }
                }
                JOINT LeftHandMiddle1
                {
                  OFFSET 8.9937 0.895004 0.2143
                  CHANNELS 3 Zrotation Xrotation Yrotation
                  JOINT LeftHandMiddle2
                  {
                    OFFSET 4.0984 0.0113983 -0.0242
                    CHANNELS 3 Zrotation Xrotation Yrotation
                    JOINT LeftHandMiddle3
                    {
                      OFFSET 2.2716 0.00689697 -0.0138001
                      CHANNELS 3 Zrotation Xrotation Yrotation
                      End Site
                      {
                        OFFSET 2.0404 -0.1441 0.0027
                      }
                    }
                  }
                }
                JOINT LeftHandRing1
                {
                  OFFSET 8.5234 0.597198 -2.0164
                  CHANNELS 3 Zrotation Xrotation Yrotation
                  JOINT LeftHandRing2
                  {
                    OFFSET 3.7188 -0.188293 -0.2328
                    CHANNELS 3 Zrotation Xrotation Yrotation
                    JOINT LeftHandRing3
                    {
                      OFFSET 2.1191 -0.106598 -0.1332
                      CHANNELS 3 Zrotation Xrotation Yrotation
                      End Site
                      {
                        OFFSET 1.8737 -0.2304 -0.0886
                      }
                    }
                  }
                }
                JOINT LeftHandPinky1
                {
                  OFFSET 7.9094 -0.601089 -3.4825
                  CHANNELS 3 Zrotation Xrotation Yrotation
                  JOINT LeftHandPinky2
                  {
                    OFFSET 2.2874 -0.477005 -0.6314
                    CHANNELS 3 Zrotation Xrotation Yrotation
                    JOINT LeftHandPinky3
                    {
                      OFFSET 1.6774 -0.349396 -0.4633
                      CHANNELS 3 Zrotation Xrotation Yrotation
                      End Site
                      {
                        OFFSET 1.4888 -0.4091 -0.3416
                      }
                    }
                  }
                }
                JOINT LeftHandThumb1
                {
                  OFFSET 1.833 -1.3875 1.3896
                  CHANNELS 3 Zrotation Xrotation Yrotation
                  JOINT LeftHandThumb2
                  {
                    OFFSET 3.4129 -1.121 2.5732
                    CHANNELS 3 Zrotation Xrotation Yrotation
                    JOINT LeftHandThumb3
                    {
                      OFFSET 2.2474 -0.804199 1.6192
                      CHANNELS 3 Zrotation Xrotation Yrotation
                      End Site
                      {
                        OFFSET 1.6527 -0.5689 1.1317
                      }
                    }
                  }
                }
              }
            }
          }
        }
        JOINT RightShoulder
        {
          OFFSET -2.2086 21.1115 7.2329
          CHANNELS 3 Zrotation Xrotation Yrotation
          JOINT RightArm
          {
            OFFSET -13.1216 3.0287 -4.9007
            CHANNELS 3 Zrotation Xrotation Yrotation
            JOINT RightForeArm
            {
              OFFSET -27.4081 -0.0973053 -0.2375
              CHANNELS 3 Zrotation Xrotation Yrotation
              JOINT RightHand
              {
                OFFSET -22.8641 0.0664063 -0.1369
                CHANNELS 3 Zrotation Xrotation Yrotation
                JOINT RightHandIndex1
                {
                  OFFSET -8.8614 0.774994 2.4612
                  CHANNELS 3 Zrotation Xrotation Yrotation
                  JOINT RightHandIndex2
                  {
                    OFFSET -3.3146 -0.808304 0.5841
                    CHANNELS 3 Zrotation Xrotation Yrotation
                    JOINT RightHandIndex3
                    {
                      OFFSET -2.2628 -0.552002 0.3989
                      CHANNELS 3 Zrotation Xrotation Yrotation
                      End Site
                      {
                        OFFSET -1.6102 -0.4807 0.2612
                      }
                    }
                  }
                }
                JOINT RightHandMiddle1
                {
                  OFFSET -8.9937 0.894989 0.2143
                  CHANNELS 3 Zrotation Xrotation Yrotation
                  JOINT RightHandMiddle2
                  {
                    OFFSET -4.0984 0.0113983 -0.0242
                    CHANNELS 3 Zrotation Xrotation Yrotation
                    JOINT RightHandMiddle3
                    {
                      OFFSET -2.2716 0.00691223 -0.0138001
                      CHANNELS 3 Zrotation Xrotation Yrotation
                      End Site
                      {
                        OFFSET -2.0404 -0.1441 0.0027
                      }
                    }
                  }
                }
                JOINT RightHandRing1
                {
                  OFFSET -8.5234 0.597198 -2.0164
                  CHANNELS 3 Zrotation Xrotation Yrotation
                  JOINT RightHandRing2
                  {
                    OFFSET -3.7188 -0.188309 -0.2328
                    CHANNELS 3 Zrotation Xrotation Yrotation
                    JOINT RightHandRing3
                    {
                      OFFSET -2.1191 -0.106598 -0.1332
                      CHANNELS 3 Zrotation Xrotation Yrotation
                      End Site
                      {
                        OFFSET -1.8737 -0.2304 -0.0886
                      }
                    }
                  }
                }
                JOINT RightHandPinky1
                {
                  OFFSET -7.9094 -0.601105 -3.4825
                  CHANNELS 3 Zrotation Xrotation Yrotation
                  JOINT RightHandPinky2
                  {
                    OFFSET -2.2874 -0.477005 -0.6314
                    CHANNELS 3 Zrotation Xrotation Yrotation
                    JOINT RightHandPinky3
                    {
                      OFFSET -1.6774 -0.349396 -0.4633
                      CHANNELS 3 Zrotation Xrotation Yrotation
                      End Site
                      {
                        OFFSET -1.4888 -0.4091 -0.3416
                      }
                    }
                  }
                }
                JOINT RightHandThumb1
                {
                  OFFSET -1.833 -1.38751 1.3896
                  CHANNELS 3 Zrotation Xrotation Yrotation
                  JOINT RightHandThumb2
                  {
                    OFFSET -3.41299 -1.12099 2.5732
                    CHANNELS 3 Zrotation Xrotation Yrotation
                    JOINT RightHandThumb3
                    {
                      OFFSET -2.24741 -0.804108 1.6192
                      CHANNELS 3 Zrotation Xrotation Yrotation
                      End Site
                      {
                        OFFSET -1.6527 -0.5689 1.1317
                      }
                    }
                  }
                }
              }
            }
          }
        }
      }
    }
  }
  JOINT RightUpLeg
  {
    OFFSET -9.1966 3.8861 -0.7581
    CHANNELS 3 Zrotation Xrotation Yrotation
    JOINT RightLeg
    {
      OFFSET -0.7359 -41.0265 0
      CHANNELS 3 Zrotation Xrotation Yrotation
      JOINT RightFoot
      {
        OFFSET 0 -40.2855 0
        CHANNELS 3 Zrotation Xrotation Yrotation
        JOINT RightToeBase
        {
          OFFSET 0 -5.6122 11.7359
          CHANNELS 3 Zrotation Xrotation Yrotation
          End Site
          {
            OFFSET 0 0 7.8731
          }
        }
      }
    }
  }
  JOINT LeftUpLeg
  {
    OFFSET 9.1965 3.8864 -0.7581
    CHANNELS 3 Zrotation Xrotation Yrotation
    JOINT LeftLeg
    {
      OFFSET 0.7359 -41.0268 0
      CHANNELS 3 Zrotation Xrotation Yrotation
      JOINT LeftFoot
      {
        OFFSET 0 -40.2855 0
        CHANNELS 3 Zrotation Xrotation Yrotation
        JOINT LeftToeBase
        {
          OFFSET 0 -5.6122 11.7359
          CHANNELS 3 Zrotation Xrotation Yrotation
          End Site
          {
            OFFSET 0 0 7.8731
          }
        }
      }
    }
  }
}
MOTION
Frames:	4
Frame Time:	0.0333333
5.84602e-005 68.8428 3.50346 0 0 -0 0 0 -0 0 0 -0 0 0 -0 0 0 -0 0 0 -0 0 0 -0 0 0 -0 0 0 -0 0 0 -0 0 0 -0 0 0 -0 0 0 -0 0 0 -0 -0.0146107 -8.87603e-005 -2.63497e-007 2.99804e-018 -2.42657e-020 -1.42182e-022 0 0 -0 -0.0187562 -0.001176 5.858e-005 5.06224e-018 3.88251e-019 1.21329e-020 0 0 -0 -0.012269 -0.00324817 0.000675346 -1.74678e-018 3.88251e-019 -0 0 0 -0 0 0 -0 0 0 -0 0 0 -0 0 0 -0 0 0 -0 0 0 -0 0 0 -0 0 0 -0 0 0 -0 0 0 -0 0.0149955 -9.10982e-005 2.64101e-007 -9.69331e-018 1.21329e-020 -4.7394e-023 0 0 -0 0.0189956 -0.00119102 -5.96516e-005 -5.41541e-019 0 2.42657e-020 0 0 -0 0.0122698 -0.00324857 -0.000673756 -2.00796e-019 0 -1.94126e-019 0 0 -0 0 0 -0 0 0 -0 3.39842 1.33031 -0.0637918 -5.65207e-008 0.834868 -0.000436188 -3.39935 -2.16518 -0.0642563 -8.89002e-024 -1.18485e-023 -1.48106e-024 -3.39844 1.35642 0.0640283 -3.18788e-007 0.782166 -0.000588827 3.39931 -2.13858 0.0634662 1.1399e-023 0 -0 
56.1992 -2.94644 -6.80233 -179.727 86.4608 179.472 -0.415017 -8.40764 -0.0304999 -0.848571 -16.8148 -0.12541 -0.84857 -16.8148 -0.12541 -8.4866e-005 -0.0505446 -0.187091 0.201077 -0.000418302 -0.239552 -8.00266 -0.194476 -0.0013356 -41.7638 -1.94127 -58.5215 51.5094 -10.9438 -64.6746 -7.00033 1.95625e-006 -8.64856e-006 -7.95139e-016 -1.14798e-014 7.95139e-016 -1.13949e-006 -1.24466e-006 1.50217e-007 -1.13949e-006 -1.24466e-006 1.50217e-007 -7.95139e-016 -1.14798e-014 7.95139e-016 -0.0145873 -8.81361e-005 -8.38074e-006 2.63241e-007 3.60049e-007 -4.64146e-007 -7.95139e-016 -1.14798e-014 7.95139e-016 -0.0187777 -0.001178 5.84344e-005 -0 -1.19271e-015 -0 -7.95139e-016 -1.14798e-014 7.95139e-016 -0.0122639 -0.00324708 0.00067788 7.95139e-016 -1.80397e-014 -7.95139e-016 -7.95139e-016 -1.14798e-014 7.95139e-016 -1.13949e-006 -1.24466e-006 1.50217e-007 -1.13949e-006 -1.24466e-006 1.50217e-007 7.99915 -0.194721 -0.00215946 41.7605 -1.94449 58.5177 -51.5139 -10.9385 64.6588 17.4084 -1.11213 -7.72755 -1.06135e-007 2.50472e-008 -2.00944e-007 1.32591e-007 1.26994e-007 -3.42416e-008 1.74388e-007 -8.63784e-008 4.11671e-007 -1.06135e-007 2.50472e-008 -2.00944e-007 0.0150038 -9.07703e-005 7.63207e-006 -1.89415e-008 -1.81413e-008 4.89404e-009 -1.06135e-007 2.50472e-008 -2.00944e-007 0.0190082 -0.00119032 -5.77892e-005 -1.89414e-008 -1.81412e-008 4.89486e-009 -1.06135e-007 2.50472e-008 -2.00944e-007 0.0122999 -0.00325584 -0.000681492 -1.89413e-008 -1.81416e-008 4.89415e-009 -1.06135e-007 2.50472e-008 -2.00944e-007 1.32591e-007 1.26994e-007 -3.42416e-008 1.74388e-007 -8.63784e-008 4.11671e-007 -1.25404 -3.42417 -3.36036 81.5343 68.9029 -94.4956 -12.7451 15.8318 -3.4542 1.78527e-006 -1.09374e-006 1.99485e-007 1.00313 -3.07644 3.40856 -116.72 63.0605 116.387 16.0555 6.76623 15.055 2.38542e-015 3.18055e-015 -0 
56.2036 -2.95702 -6.79687 -179.727 86.4608 179.472 -0.415017 -8.40764 -0.0304999 -0.848571 -16.8148 -0.12541 -0.84857 -16.8148 -0.12541 0.0110707 -0.0997894 -0.37225 0.400972 0.0375638 -0.47168 -8.00266 -0.194476 -0.0013356 -41.7638 -1.94127 -58.5215 50.9492 -10.8558 -64.9774 -6.81991 0.209574 0.0480258 -6.23215e-007 5.68371e-007 1.08435e-007 -6.23215e-007 5.68371e-007 1.08435e-007 -6.23215e-007 5.68371e-007 1.08435e-007 -6.23215e-007 5.68371e-007 1.08435e-007 -0.0145772 -8.8355e-005 3.66316e-006 -6.23225e-007 5.68357e-007 1.08508e-007 -6.23215e-007 5.68371e-007 1.08435e-007 -0.0187353 -0.00117326 6.31808e-005 -6.23226e-007 5.68353e-007 1.08534e-007 -6.23215e-007 5.68371e-007 1.08435e-007 -0.0122986 -0.00325469 0.000675091 -6.23217e-007 5.68361e-007 1.08514e-007 -6.23215e-007 5.68371e-007 1.08435e-007 -6.23215e-007 5.68371e-007 1.08435e-007 -6.23215e-007 5.68371e-007 1.08435e-007 7.99915 -0.194721 -0.00215946 41.7605 -1.9445 58.5177 -51.514 -10.9385 64.6588 17.4084 -1.11213 -7.72754 6.36111e-015 1.56294e-014 -2.88238e-015 1.51532e-007 1.45136e-007 -3.91332e-008 1.28818e-031 -3.45388e-015 2.13694e-015 6.36111e-015 1.56294e-014 -2.88238e-015 0.0150167 -9.12027e-005 9.58151e-007 5.86222e-033 8.44835e-016 -3.97569e-016 6.36111e-015 1.56294e-014 -2.88238e-015 0.0189979 -0.0011933 -6.58484e-005 -3.18055e-015 -1.31695e-015 -9.93923e-017 6.36111e-015 1.56294e-014 -2.88238e-015 0.0122794 -0.00324984 -0.000679748 3.18055e-015 -2.75814e-015 5.46658e-016 6.36111e-015 1.56294e-014 -2.88238e-015 1.51532e-007 1.45136e-007 -3.91332e-008 1.28818e-031 -3.45388e-015 2.13694e-015 -1.26391 -3.42557 -3.39351 82.6201 69.3202 -95.6245 -12.7418 15.8375 -3.4684 7.95139e-016 0 -3.18055e-015 1.01726 -3.07782 3.43577 -117.513 63.3505 117.162 16.0686 6.77361 15.0622 -7.95139e-016 1.59028e-014 -1.59028e-015 
56.208 -2.96774 -6.79137 -179.727 86.4608 179.472 -0.415017 -8.40764 -0.0304998 -0.84857 -16.8148 -0.12541 -0.84857 -16.8148 -0.12541 0.0220634 -0.148823 -0.557468 0.601152 0.074779 -0.704097 -8.00266 -0.194479 -0.00133585 -41.7638 -1.94126 -58.5215 50.3888 -10.7648 -65.2797 -6.63953 0.41947 0.095416 3.85466e-007 -8.90535e-007 3.89035e-007 2.38217e-006 1.14212e-007 -3.72909e-007 6.24095e-007 -5.66989e-007 -1.1018e-007 3.85466e-007 -8.90535e-007 3.89035e-007 -0.014591 -8.96354e-005 -1.73724e-008 6.24105e-007 -5.66975e-007 -1.10253e-007 3.85466e-007 -8.90535e-007 3.89035e-007 -0.0187522 -0.00117528 5.24563e-005 6.24106e-007 -5.66971e-007 -1.1028e-007 3.85466e-007 -8.90535e-007 3.89035e-007 -0.0122802 -0.00325182 0.000669072 6.24097e-007 -5.66979e-007 -1.10259e-007 3.85466e-007 -8.90535e-007 3.89035e-007 2.38217e-006 1.14212e-007 -3.72909e-007 6.24095e-007 -5.66989e-007 -1.1018e-007 7.99915 -0.194724 -0.00215886 41.7605 -1.94449 58.5177 -51.514 -10.9385 64.6588 17.4084 -1.11212 -7.72753 -4.73538e-007 -4.5355e-007 1.22291e-007 -9.47077e-008 -9.07099e-008 2.44583e-008 -5.68246e-008 -5.4426e-008 1.46749e-008 -4.73538e-007 -4.5355e-007 1.22291e-007 0.0150194 -8.876e-005 4.92844e-007 -5.68246e-008 -5.4424e-008 1.46821e-008 -4.73538e-007 -4.5355e-007 1.22291e-007 0.0190079 -0.00119298 -6.72284e-005 3.19968e-008 -9.768e-008 2.20521e-007 -4.73538e-007 -4.5355e-007 1.22291e-007 0.0122926 -0.00325346 -0.000671006 -5.68239e-008 -5.44248e-008 1.46824e-008 -4.73538e-007 -4.5355e-007 1.22291e-007 -9.47077e-008 -9.07099e-008 2.44583e-008 -5.68246e-008 -5.4426e-008 1.46749e-008 -1.27371 -3.42542 -3.42686 83.7474 69.73 -96.7947 -12.7385 15.8433 -3.48274 -8.30005e-007 -1.16899e-007 -1.33154e-007 1.03134 -3.08346 3.46285 -118.33 63.6339 117.962 16.0817 6.78116 15.0694 -1.02312e-006 -1.57051e-006 -2.66914e-007 
